<svg xmlns="http://www.w3.org/2000/svg" viewBox="0 0 133.42 20.28"><title>logo</title><g id="Layer_2" data-name="Layer 2"><g id="Layer_1-2" data-name="Layer 1"><path d="M62.84,20H58.91l-1.28-3.76h-7L49.4,20H45.83L52.53.21H56Zm-6.11-6.57L54.91,8.23a19.43,19.43,0,0,1-.76-2.53h0q-.52,1.91-.74,2.53l-1.83,5.23Z" fill="#fff"/><path d="M68.67,2.37A2,2,0,0,1,68,3.86a2.15,2.15,0,0,1-1.54.61A2.1,2.1,0,0,1,65,3.86a2,2,0,0,1-.63-1.49A2,2,0,0,1,65,.87,2.08,2.08,0,0,1,66.49.25,2.15,2.15,0,0,1,68,.86,2,2,0,0,1,68.67,2.37ZM68.23,20H64.75V6.38h3.49Z" fill="#fff"/><path d="M79.41,6.38l0,3.11a2.89,2.89,0,0,0-3,1,6.73,6.73,0,0,0-.94,4V20H72V6.4h3.3A17.29,17.29,0,0,1,75,9.21h.05A3.86,3.86,0,0,1,79.41,6.38Z" fill="#fff"/><path d="M90.49,1.34h-.88a3.12,3.12,0,0,0-2.53,1.07,5.08,5.08,0,0,0-.76,3.09v.87h4.17V7.85H86.32V20H84.6V7.85H81.49V6.38H84.6V5.56a5.84,5.84,0,0,1,1.32-4.17A4.89,4.89,0,0,1,89.64,0h.86" fill="#fff"/><path d="M95.09,20H93.38V.14h1.72Z" fill="#fff"/><path d="M111.18,13.06a7.68,7.68,0,0,1-1.75,5.12,5.76,5.76,0,0,1-4.63,2.07,5.5,5.5,0,0,1-4.33-1.74,7.62,7.62,0,0,1-1.55-5.21,7.52,7.52,0,0,1,1.7-5,5.74,5.74,0,0,1,4.65-2,5.83,5.83,0,0,1,4.27,1.62Q111.18,9.51,111.18,13.06Zm-1.77.08a6.52,6.52,0,0,0-1.1-4,3.82,3.82,0,0,0-3.23-1.44A4,4,0,0,0,102,9.08a5.94,5.94,0,0,0-1.27,4.09,6.72,6.72,0,0,0,1.15,4.18,4.13,4.13,0,0,0,6.31,0A6.37,6.37,0,0,0,109.4,13.14Z" fill="#fff"/><path d="M133.42,6.49,129,20h-2l-3.22-9.38q-.44-1.28-.74-2.48h0q-.24,1-1,3.41L119.27,20H117.2L113,6.49h2l2.51,8.72q.14.52.46,1.62t.44,1.54h0q.33-1.36.9-3.16l2.81-8.72h2.07l2.83,8.7q.6,1.8,1,3.22h0q.11-.44.93-3.16l2.64-8.75Z" fill="#fff"/><polygon points="1.35 20.18 1.35 15.64 0.13 16.16 0 15.58 1.47 15.02 2 15.02 2 20.18 1.35 20.18" style="fill:#fff"/><path d="M8.47,17.52a3,3,0,0,1-.21,1.14,2.61,2.61,0,0,1-.57.87,2.46,2.46,0,0,1-.83.55,2.68,2.68,0,0,1-1,.19,2.78,2.78,0,0,1-1-.16,2,2,0,0,1-.76-.49,2.27,2.27,0,0,1-.49-.82,3.46,3.46,0,0,1-.17-1.15,2.83,2.83,0,0,1,.21-1.12,2.6,2.6,0,0,1,.57-.85A2.49,2.49,0,0,1,5,15.13a2.65,2.65,0,0,1,1-.19,2.83,2.83,0,0,1,1,.18,2.07,2.07,0,0,1,.77.52,2.23,2.23,0,0,1,.47.81,3.33,3.33,0,0,1,.16,1.06m-.65.08a3,3,0,0,0-.11-.84,1.9,1.9,0,0,0-.34-.67,1.67,1.67,0,0,0-.58-.45,2,2,0,0,0-1.55,0,1.88,1.88,0,0,0-.6.42,2,2,0,0,0-.41.66,2.39,2.39,0,0,0-.15.87,3.25,3.25,0,0,0,.1.85,1.94,1.94,0,0,0,.33.7,1.59,1.59,0,0,0,.57.47,1.84,1.84,0,0,0,.83.17,1.73,1.73,0,0,0,.72-.16,1.87,1.87,0,0,0,.6-.43,2.12,2.12,0,0,0,.42-.68,2.36,2.36,0,0,0,.16-.88" style="fill:#fff"/><path d="M13.66,18.46A1.62,1.62,0,0,1,13,19.8a2.17,2.17,0,0,1-.69.34,2.81,2.81,0,0,1-.83.12,2.62,2.62,0,0,1-.87-.13,1.8,1.8,0,0,1-.62-.35,1.43,1.43,0,0,1-.37-.53,1.8,1.8,0,0,1-.12-.66,1.54,1.54,0,0,1,.13-.65,2.2,2.2,0,0,1,.34-.53,2.81,2.81,0,0,1,.48-.44q.27-.2.54-.37h0a3.8,3.8,0,0,1-1-.81,1.52,1.52,0,0,1-.36-1,1.6,1.6,0,0,1,.14-.68,1.57,1.57,0,0,1,.41-.54,1.93,1.93,0,0,1,.64-.36,2.76,2.76,0,0,1,1.63,0,1.68,1.68,0,0,1,.59.33,1.45,1.45,0,0,1,.37.5,1.52,1.52,0,0,1,.13.63,1.53,1.53,0,0,1-.34,1,4.06,4.06,0,0,1-1.08.9l.56.35a2.75,2.75,0,0,1,.5.41,1.83,1.83,0,0,1,.36.52,1.55,1.55,0,0,1,.13.66m-.68.12a1.25,1.25,0,0,0-.1-.52,1.51,1.51,0,0,0-.3-.44,3.09,3.09,0,0,0-.47-.38,6.92,6.92,0,0,0-.61-.36h0a4.61,4.61,0,0,0-.95.74,1.26,1.26,0,0,0-.37.89,1.14,1.14,0,0,0,.38.89,1.49,1.49,0,0,0,1,.34,1.85,1.85,0,0,0,.54-.07,1.3,1.3,0,0,0,.45-.23,1.13,1.13,0,0,0,.3-.37,1.07,1.07,0,0,0,.11-.5m-.12-3.87a1.11,1.11,0,0,0-.33-.8,1.29,1.29,0,0,0-1-.33,1.67,1.67,0,0,0-.56.09,1.2,1.2,0,0,0-.41.25,1,1,0,0,0-.25.36,1.16,1.16,0,0,0-.08.45,1.1,1.1,0,0,0,.34.82,4.5,4.5,0,0,0,1,.69h0q.34-.21.58-.39a2.25,2.25,0,0,0,.39-.36,1.23,1.23,0,0,0,.22-.37,1.1,1.1,0,0,0,.07-.4" style="fill:#fff"/><path d="M19.75,17.52a3,3,0,0,1-.21,1.14,2.6,2.6,0,0,1-.57.87,2.45,2.45,0,0,1-.83.55,2.7,2.7,0,0,1-1,.19,2.77,2.77,0,0,1-1-.16,2,2,0,0,1-.76-.49,2.25,2.25,0,0,1-.49-.82,3.42,3.42,0,0,1-.18-1.15,2.84,2.84,0,0,1,.21-1.12,2.59,2.59,0,0,1,.57-.85,2.47,2.47,0,0,1,.82-.54,2.65,2.65,0,0,1,1-.19,2.82,2.82,0,0,1,1,.18,2.07,2.07,0,0,1,.77.52,2.2,2.2,0,0,1,.47.81,3.3,3.3,0,0,1,.16,1.06m-.65.08a3.06,3.06,0,0,0-.11-.84,1.89,1.89,0,0,0-.34-.67,1.7,1.7,0,0,0-.58-.45,2,2,0,0,0-1.55,0,1.89,1.89,0,0,0-.6.42,2,2,0,0,0-.41.66,2.36,2.36,0,0,0-.15.87,3.23,3.23,0,0,0,.1.85,1.91,1.91,0,0,0,.33.7,1.58,1.58,0,0,0,.57.47,1.84,1.84,0,0,0,.83.17,1.72,1.72,0,0,0,.72-.16,1.87,1.87,0,0,0,.6-.43,2.13,2.13,0,0,0,.42-.68,2.36,2.36,0,0,0,.16-.88" style="fill:#fff"/><path d="M25.38,17.39a3.23,3.23,0,0,1-.22,1.23,2.35,2.35,0,0,1-.62.89,2.63,2.63,0,0,1-.95.54,3.81,3.81,0,0,1-1.21.18h-.8l-.72,0v-5.4l.78,0h1a4.13,4.13,0,0,1,1.14.15,2.11,2.11,0,0,1,.87.46,2.09,2.09,0,0,1,.55.82,3.43,3.43,0,0,1,.19,1.22m-1.12.08a3,3,0,0,0-.09-.78,1.48,1.48,0,0,0-.29-.59,1.25,1.25,0,0,0-.53-.37,2.2,2.2,0,0,0-.79-.12h-.35l-.29,0v3.66l.26,0h.31a2.2,2.2,0,0,0,.71-.11,1.45,1.45,0,0,0,.56-.34,1.6,1.6,0,0,0,.37-.58,2.39,2.39,0,0,0,.13-.84" style="fill:#fff"/><path d="M31.37,17.4a3.27,3.27,0,0,1-.21,1.21,2.74,2.74,0,0,1-.56.9,2.36,2.36,0,0,1-.84.57,2.72,2.72,0,0,1-1,.2,2.86,2.86,0,0,1-1.08-.19,1.94,1.94,0,0,1-.77-.55,2.35,2.35,0,0,1-.46-.86,3.88,3.88,0,0,1-.15-1.13,3.26,3.26,0,0,1,.21-1.2,2.72,2.72,0,0,1,.57-.9,2.49,2.49,0,0,1,.84-.57,2.68,2.68,0,0,1,1-.2,2.88,2.88,0,0,1,1,.17,2,2,0,0,1,.78.5,2.28,2.28,0,0,1,.51.85,3.66,3.66,0,0,1,.18,1.21m-1.11.08a2.21,2.21,0,0,0-.37-1.38,1.27,1.27,0,0,0-1.08-.48,1.34,1.34,0,0,0-.54.12,1.26,1.26,0,0,0-.46.33,1.69,1.69,0,0,0-.32.57,2.41,2.41,0,0,0-.12.8,3.35,3.35,0,0,0,.08.78,1.68,1.68,0,0,0,.26.59,1.24,1.24,0,0,0,.45.38,1.36,1.36,0,0,0,.63.14,1.4,1.4,0,0,0,.53-.11,1.25,1.25,0,0,0,.47-.33,1.69,1.69,0,0,0,.34-.57,2.44,2.44,0,0,0,.13-.84" style="fill:#fff"/><polygon points="34.53 15.65 34.53 20.19 33.49 20.19 33.49 15.65 32.08 15.65 32.08 14.77 35.93 14.77 35.93 15.65 34.53 15.65" style="fill:#fff"/><path d="M40.09,18.51a1.67,1.67,0,0,1-.15.71,1.58,1.58,0,0,1-.43.56,2,2,0,0,1-.67.37,2.76,2.76,0,0,1-.9.13,5,5,0,0,1-.57,0,3.81,3.81,0,0,1-.54-.1l.06-1a3.61,3.61,0,0,0,.54.13,3.32,3.32,0,0,0,.6.06,1.24,1.24,0,0,0,.67-.17.59.59,0,0,0,.27-.54.52.52,0,0,0-.17-.41,1.56,1.56,0,0,0-.42-.27l-.55-.22a2.43,2.43,0,0,1-.55-.28,1.43,1.43,0,0,1-.42-.44,1.36,1.36,0,0,1-.17-.72,1.53,1.53,0,0,1,.14-.66,1.41,1.41,0,0,1,.41-.52,2,2,0,0,1,.65-.33,2.8,2.8,0,0,1,.87-.12,4,4,0,0,1,.49,0l.49.07-.06.92-.48-.11a3,3,0,0,0-.49,0,1.05,1.05,0,0,0-.68.18.58.58,0,0,0-.22.47.51.51,0,0,0,.17.39,1.8,1.8,0,0,0,.42.26l.55.23a2.31,2.31,0,0,1,.55.29,1.5,1.5,0,0,1,.42.44,1.26,1.26,0,0,1,.17.69" style="fill:#fff"/><path d="M28,11.67h11.4V.28H28Zm9.38-2H30V2.3h7.36Z" style="fill:#ffef00"/><path d="M14.35,11.67h11.4V.28H14.35Zm9.38-2H16.36V2.3h7.36Z" style="fill:#ffef00"/><path d="M.71,11.67h11.4V.28H.71Zm9.38-2H2.73V2.3h7.36Z" style="fill:#ffef00"/></g></g></svg>